<?xml version="1.0" standalone="no"?>
<!DOCTYPE svg PUBLIC "-//W3C//DTD SVG 20010904//EN"
 "http://www.w3.org/TR/2001/REC-SVG-20010904/DTD/svg10.dtd">
<svg version="1.0" xmlns="http://www.w3.org/2000/svg"
 width="512.000000pt" height="512.000000pt" viewBox="0 0 512.000000 512.000000"
 preserveAspectRatio="xMidYMid meet">

<g transform="translate(0.000000,512.000000) scale(0.100000,-0.100000)"
fill="#6c54a3" stroke="none">
<path d="M0 3965 c0 -763 3 -1155 10 -1155 13 0 13 -127 0 -135 -14 -9 -13
-238 1 -252 6 -6 12 -62 14 -129 2 -66 6 -139 9 -164 7 -58 -1 -40 -19 41 -12
56 -14 -74 -14 -1053 l-1 -1118 1032 0 c567 0 1029 2 1026 5 -2 3 -22 12 -44
20 l-39 15 55 -5 c30 -3 82 -6 115 -8 32 -2 61 -9 63 -16 5 -15 719 -16 724 0
2 6 30 12 63 14 33 2 83 6 110 9 l50 6 -40 -19 c-40 -19 -36 -20 983 -20
l1022 -1 -1 1023 c0 1018 -1 1022 -20 982 l-19 -40 6 50 c3 28 7 77 9 110 2
33 8 61 14 63 16 5 15 719 0 724 -7 2 -14 31 -16 63 -2 33 -5 85 -8 115 l-5
55 15 -39 c8 -22 17 -42 20 -44 3 -3 5 459 5 1026 l0 1032 -1122 -1 c-673 -1
-1103 -5 -1073 -10 28 -5 64 -13 80 -19 26 -8 24 -9 -15 -4 -25 3 -98 7 -164
9 -67 2 -123 8 -129 14 -14 14 -243 15 -252 1 -3 -5 -35 -10 -71 -10 -36 0
-64 4 -64 10 0 7 -392 10 -1155 10 l-1155 0 0 -1155z m2648 703 c65 -40 118
-150 93 -196 -6 -11 -11 -30 -11 -42 0 -11 -20 -40 -44 -64 -61 -58 -132 -77
-200 -51 -73 28 -136 117 -136 191 0 26 22 85 40 109 24 34 83 73 115 78 47 7
107 -3 143 -25z m-852 -150 c58 -16 116 -65 143 -123 24 -52 26 -70 9 -127
-23 -74 -115 -148 -185 -148 -113 0 -212 96 -213 205 0 40 42 127 73 154 15
12 103 50 119 51 4 0 28 -6 54 -12z m1662 -13 c57 -38 86 -96 85 -171 -1 -74
-22 -111 -91 -155 -37 -23 -57 -29 -104 -29 -78 0 -121 24 -164 92 -28 45 -33
137 -9 184 35 70 89 102 178 103 56 1 74 -3 105 -24z m676 -484 c157 -104 79
-351 -110 -351 -125 0 -227 122 -195 232 25 82 82 137 155 148 60 9 106 0 150
-29z m-2983 -5 c152 -64 177 -256 44 -348 -33 -22 -51 -27 -102 -28 -110 0
-187 68 -199 177 -16 133 136 250 257 199z m1679 -54 c194 -37 369 -109 543
-225 111 -73 301 -260 374 -367 127 -187 206 -389 244 -620 23 -143 13 -375
-23 -515 -39 -157 -52 -194 -103 -300 -44 -90 -124 -221 -172 -280 -97 -119
-282 -280 -395 -344 -21 -11 -53 -29 -70 -39 -43 -24 -185 -83 -223 -93 -16
-4 -55 -14 -85 -22 -211 -55 -471 -58 -672 -7 -90 23 -124 33 -143 40 -11 4
-36 14 -55 21 -284 103 -596 380 -742 659 -83 160 -120 273 -158 484 -13 77
-13 313 1 390 34 194 61 283 127 426 29 62 103 184 149 245 73 96 243 257 339
321 151 101 340 184 484 212 30 6 75 15 100 21 56 12 406 7 480 -7z m1722
-637 c64 -42 104 -161 78 -227 -24 -59 -49 -86 -105 -112 -66 -32 -101 -33
-160 -5 -90 42 -143 150 -115 235 25 75 71 117 150 135 52 11 110 1 152 -26z
m-3786 -26 c25 -12 55 -36 68 -53 91 -124 31 -280 -120 -315 -47 -11 -55 -10
-106 13 -90 41 -142 135 -118 212 26 86 47 114 109 145 48 24 112 24 167 -2z
m3825 -760 c83 -28 139 -104 139 -189 0 -27 -4 -52 -10 -55 -5 -3 -10 -14 -10
-23 -1 -24 -50 -75 -90 -94 -55 -26 -104 -31 -147 -17 -83 29 -120 70 -132
151 -15 92 28 176 111 217 48 24 89 26 139 10z m-3892 -63 c26 -12 57 -39 74
-63 57 -80 32 -209 -50 -265 -78 -53 -162 -51 -236 5 -41 31 -77 103 -77 152
0 48 42 128 82 158 67 49 127 53 207 13z m3636 -732 c79 -18 137 -95 137 -183
0 -67 -16 -103 -63 -146 -108 -96 -257 -59 -317 78 -28 65 0 164 62 213 36 29
108 55 136 48 8 -2 29 -6 45 -10z m-3365 -39 c76 -39 115 -140 91 -233 -46
-171 -292 -193 -369 -32 -50 105 8 246 117 281 35 11 126 2 161 -16z m2838
-571 c79 -32 132 -110 132 -192 0 -118 -105 -204 -232 -189 -57 7 -102 38
-133 92 -50 86 -41 169 25 235 67 67 135 85 208 54z m-2298 -36 c24 -13 57
-40 74 -61 28 -35 30 -45 30 -110 0 -65 -3 -77 -29 -114 -46 -64 -77 -78 -167
-78 -71 1 -80 3 -115 31 -50 41 -77 96 -76 161 1 145 153 237 283 171z m738
-314 c198 -82 162 -355 -50 -380 -149 -18 -262 135 -199 271 47 101 155 148
249 109z m818 0 c47 -19 104 -71 104 -95 0 -10 5 -21 10 -24 6 -3 10 -30 10
-60 0 -30 -4 -57 -10 -60 -5 -3 -10 -14 -10 -23 -1 -23 -51 -77 -92 -98 -21
-12 -53 -17 -90 -16 -99 2 -174 67 -185 159 -18 160 121 275 263 217z"/>
<path d="M2188 3676 c-179 -63 -314 -149 -454 -290 -176 -176 -273 -356 -333
-619 -14 -62 -14 -373 0 -434 46 -198 103 -332 206 -480 99 -141 294 -306 448
-377 90 -42 141 -59 290 -98 68 -17 371 -17 450 0 33 7 92 23 130 35 312 94
601 352 729 652 56 132 56 132 87 265 16 73 16 368 0 440 -7 30 -17 75 -23
100 -5 25 -14 54 -18 65 -4 11 -15 39 -24 62 -90 243 -269 449 -499 576 -26
15 -54 27 -62 27 -9 0 -23 4 -33 9 -41 21 -122 31 -251 31 -148 0 -212 -9
-361 -51 -282 -80 -540 -337 -645 -644 -43 -127 -63 -306 -46 -428 12 -85 22
-131 41 -182 5 -11 14 -36 21 -55 42 -115 183 -279 309 -358 113 -72 155 -88
302 -121 61 -14 219 -14 272 0 126 33 166 50 247 106 181 126 304 393 269 589
-26 155 -88 259 -206 350 -49 36 -57 41 -149 75 -64 24 -210 26 -275 3 -160
-55 -270 -205 -270 -367 0 -74 16 -130 52 -183 93 -139 267 -179 396 -92 126
86 138 274 21 350 -80 52 -163 46 -218 -17 -56 -64 -50 -142 14 -191 60 -45
132 -24 157 48 13 36 32 31 36 -9 2 -23 -5 -40 -28 -66 -125 -143 -350 27
-275 206 38 91 123 147 224 147 33 0 63 -4 66 -10 3 -5 13 -10 21 -10 26 0 94
-50 124 -91 30 -43 60 -128 60 -174 0 -82 -48 -182 -117 -245 -154 -140 -401
-116 -551 55 -213 242 -76 664 250 769 124 39 222 41 353 4 87 -25 232 -113
283 -172 69 -81 128 -184 149 -261 36 -130 40 -190 19 -305 -59 -330 -283
-572 -606 -654 -73 -19 -287 -22 -358 -5 -116 27 -158 42 -264 94 -251 124
-447 372 -510 645 -17 70 -21 355 -8 435 53 309 243 602 507 783 50 34 96 62
101 62 5 0 15 7 22 15 17 20 7 19 -72 -9z"/>
</g>
</svg>
